<svg width="21" height="21" viewBox="0 0 21 21" fill="none" xmlns="http://www.w3.org/2000/svg">
<path d="M16.75 12.825L18.15 11.425C17.4833 10.7583 16.9625 9.99583 16.5875 9.1375C16.2125 8.27917 16.025 7.375 16.025 6.425C16.025 5.475 16.2125 4.575 16.5875 3.725C16.9625 2.875 17.4833 2.11667 18.15 1.45L16.75 0C15.9 0.85 15.2333 1.83333 14.75 2.95C14.2667 4.06667 14.025 5.225 14.025 6.425C14.025 7.625 14.2667 8.77917 14.75 9.8875C15.2333 10.9958 15.9 11.975 16.75 12.825V12.825M19.55 9.975L20.95 8.575C20.6667 8.29167 20.4417 7.96667 20.275 7.6C20.1083 7.23333 20.025 6.84167 20.025 6.425C20.025 6.00833 20.1083 5.61667 20.275 5.25C20.4417 4.88333 20.6667 4.55833 20.95 4.275L19.55 2.85C19.0667 3.33333 18.6917 3.875 18.425 4.475C18.1583 5.075 18.025 5.71667 18.025 6.4C18.025 7.08333 18.1583 7.73333 18.425 8.35C18.6917 8.96667 19.0667 9.50833 19.55 9.975V9.975M8 12.075C6.9 12.075 5.95833 11.6833 5.175 10.9C4.39167 10.1167 4 9.175 4 8.075C4 6.975 4.39167 6.03333 5.175 5.25C5.95833 4.46667 6.9 4.075 8 4.075C9.1 4.075 10.0417 4.46667 10.825 5.25C11.6083 6.03333 12 6.975 12 8.075C12 9.175 11.6083 10.1167 10.825 10.9C10.0417 11.6833 9.1 12.075 8 12.075V12.075M0 20.075V17.275C0 16.725 0.141667 16.2083 0.425 15.725C0.708333 15.2417 1.1 14.875 1.6 14.625C2.45 14.1917 3.40833 13.825 4.475 13.525C5.54167 13.225 6.71667 13.075 8 13.075C9.28333 13.075 10.4583 13.225 11.525 13.525C12.5917 13.825 13.55 14.1917 14.4 14.625C14.9 14.875 15.2917 15.2417 15.575 15.725C15.8583 16.2083 16 16.725 16 17.275V20.075H0V20.075" fill="#440812"/>
</svg>
