<svg width="16" height="20" viewBox="0 0 16 20" fill="none" xmlns="http://www.w3.org/2000/svg">
<path d="M0.8 5C0.55 4.71667 0.354167 4.40833 0.2125 4.075C0.0708333 3.74167 0 3.38333 0 3C0 2.16667 0.291667 1.45833 0.875 0.875C1.45833 0.291667 2.16667 0 3 0C3.83333 0 4.54167 0.291667 5.125 0.875C5.70833 1.45833 6 2.16667 6 3C6 3.38333 5.92917 3.74167 5.7875 4.075C5.64583 4.40833 5.45 4.71667 5.2 5H0.8V5M6 20C4.9 20 3.95833 19.6083 3.175 18.825C2.39167 18.0417 2 17.1 2 16H1L0 6H6L5 16H4C4 16.55 4.19583 17.0208 4.5875 17.4125C4.97917 17.8042 5.45 18 6 18C6.55 18 7.02083 17.8042 7.4125 17.4125C7.80417 17.0208 8 16.55 8 16V4C8 2.9 8.39167 1.95833 9.175 1.175C9.95833 0.391667 10.9 0 12 0C13.1 0 14.0417 0.391667 14.825 1.175C15.6083 1.95833 16 2.9 16 4V20H14V4C14 3.45 13.8042 2.97917 13.4125 2.5875C13.0208 2.19583 12.55 2 12 2C11.45 2 10.9792 2.19583 10.5875 2.5875C10.1958 2.97917 10 3.45 10 4V16C10 17.1 9.60833 18.0417 8.825 18.825C8.04167 19.6083 7.1 20 6 20V20" fill="#440812"/>
</svg>
