<svg width="44" height="44" viewBox="0 0 44 44" fill="none" xmlns="http://www.w3.org/2000/svg">
<path d="M20.3683 42.1675C20.1557 42.1672 19.9448 42.13 19.745 42.0575C19.3595 41.9164 19.0326 41.6499 18.8165 41.3009C18.6005 40.9519 18.5078 40.5404 18.5533 40.1325L19.965 27.1342H9.16667C8.8336 27.1347 8.5067 27.0444 8.22106 26.8731C7.93542 26.7019 7.70183 26.456 7.54539 26.162C7.38895 25.8679 7.31556 25.5368 7.33311 25.2042C7.35066 24.8716 7.45848 24.5501 7.645 24.2742L22.11 2.64083C22.3388 2.30228 22.6741 2.04986 23.0627 1.92365C23.4513 1.79743 23.871 1.80465 24.255 1.94416C24.6242 2.08123 24.9394 2.33353 25.1541 2.66373C25.3687 2.99392 25.4713 3.38445 25.4467 3.7775L24.035 16.8675H34.8333C35.1664 16.867 35.4933 16.9572 35.7789 17.1285C36.0646 17.2998 36.2982 17.5457 36.4546 17.8397C36.611 18.1337 36.6844 18.4648 36.6669 18.7974C36.6493 19.13 36.5415 19.4516 36.355 19.7275L21.89 41.3608C21.7218 41.6096 21.4951 41.8133 21.2298 41.954C20.9645 42.0946 20.6686 42.1679 20.3683 42.1675ZM12.595 23.4675H22C22.2558 23.4681 22.5087 23.5222 22.7424 23.6264C22.976 23.7306 23.1853 23.8826 23.3567 24.0725C23.5297 24.265 23.66 24.4919 23.739 24.7384C23.818 24.9849 23.8439 25.2453 23.815 25.5025L22.99 33.1108L31.405 20.5342H22C21.7413 20.5357 21.4852 20.4825 21.2485 20.3781C21.0118 20.2736 20.7999 20.1202 20.6268 19.928C20.4536 19.7358 20.3231 19.5091 20.2438 19.2628C20.1645 19.0166 20.1382 18.7563 20.1667 18.4992L20.9917 10.8908L12.595 23.4675Z" fill="#8BFF33"/>
</svg>
