<svg width="126" height="126" viewBox="0 0 126 126" fill="none" xmlns="http://www.w3.org/2000/svg">
<path d="M51.97 16.9895C57.1316 9.01447 68.8003 9.01448 73.9619 16.9895C76.9164 21.5544 82.384 23.8191 87.7009 22.6804C96.9899 20.691 105.241 28.942 103.252 38.231C102.113 43.548 104.378 49.0155 108.942 51.97C116.917 57.1316 116.917 68.8003 108.942 73.9619C104.378 76.9164 102.113 82.384 103.252 87.7009C105.241 96.9899 96.9899 105.241 87.7009 103.252C82.384 102.113 76.9164 104.378 73.9619 108.942C68.8003 116.917 57.1316 116.917 51.97 108.942C49.0155 104.378 43.548 102.113 38.231 103.252C28.942 105.241 20.691 96.9899 22.6804 87.7009C23.8191 82.384 21.5544 76.9164 16.9895 73.9619C9.01448 68.8003 9.01447 57.1316 16.9895 51.97C21.5544 49.0155 23.8191 43.548 22.6804 38.231C20.691 28.942 28.942 20.691 38.231 22.6804C43.548 23.8191 49.0155 21.5544 51.97 16.9895Z" fill="#B5FB75"/>
<line x1="55.7922" y1="72.6551" x2="76.8178" y2="50.5229" stroke="black" stroke-width="5" stroke-linecap="round"/>
<line x1="55.2709" y1="73.0586" x2="44.6399" y2="62.4277" stroke="black" stroke-width="5" stroke-linecap="round"/>
</svg>
