<svg width="49" height="49" viewBox="0 0 49 49" fill="none" xmlns="http://www.w3.org/2000/svg">
<path d="M38.2694 32.2271L40.0217 8.59066C40.1168 7.48464 39.7737 6.38552 39.0663 5.53C38.3589 4.67449 37.3438 4.13103 36.2396 4.01668C35.1354 3.90232 34.0305 4.22622 33.1628 4.91861C32.2951 5.611 31.734 6.61648 31.6004 7.71852L30.2126 18.1278M16.1134 22.1562L14.6772 13.5375C14.4977 12.4813 13.9165 11.5356 13.0555 10.8981C12.1944 10.2607 11.1201 9.98106 10.0576 10.1177C8.995 10.2543 8.02645 10.7966 7.35465 11.6312C6.68285 12.4657 6.35988 13.5277 6.45332 14.5949L8.05662 32.2271M24.1701 26.1846V23.1633C24.1701 22.0949 23.7457 21.0703 22.9902 20.3148C22.2347 19.5593 21.2101 19.1349 20.1417 19.1349C19.0733 19.1349 18.0487 19.5593 17.2932 20.3148C16.5378 21.0703 16.1134 22.0949 16.1134 23.1633V30.2129" stroke="#8A5C5E" stroke-width="2" stroke-linecap="round" stroke-linejoin="round"/>
<path d="M32.2267 26.1837V22.1553C32.2267 21.0869 31.8022 20.0623 31.0468 19.3068C30.2913 18.5514 29.2667 18.127 28.1983 18.127C27.1299 18.127 26.1053 18.5514 25.3498 19.3068C24.5943 20.0623 24.1699 21.0869 24.1699 22.1553V26.1837" stroke="#8A5C5E" stroke-width="2" stroke-linecap="round" stroke-linejoin="round"/>
<path d="M38.2694 32.2266C37.1898 40.2833 31.5058 44.3117 23.163 44.3117C14.8203 44.3117 8.05664 40.2833 8.05664 32.2266" stroke="#8A5C5E" stroke-width="2"/>
<path d="M27.5785 34.2403H22.1563C21.0879 34.2403 20.0633 33.8159 19.3078 33.0604C18.5523 32.305 18.1279 31.2804 18.1279 30.212C18.1279 29.1436 18.5523 28.1189 19.3078 27.3635C20.0633 26.608 21.0879 26.1836 22.1563 26.1836H30.213C34.6644 26.1836 39.2769 30.212 37.2627 36.2545" stroke="#8A5C5E" stroke-width="2" stroke-linecap="round" stroke-linejoin="round"/>
</svg>
