<svg width="39" height="39" viewBox="0 0 39 39" fill="none" xmlns="http://www.w3.org/2000/svg">
<path d="M9.16454 11.9844L3.42411 17.7248C3.05485 18.0941 2.5936 18.2875 2.04037 18.3049C1.48714 18.3224 1.00843 18.129 0.604255 17.7248C0.234988 17.3556 0.0422979 16.8943 0.0261844 16.3411C0.0100709 15.7878 0.185977 15.3091 0.553901 14.905L2.01418 13.3943L0.604255 11.9844C0.201418 11.5816 0 11.1116 0 10.5745C0 10.0374 0.201418 9.56738 0.604255 9.16454L3.42411 6.34468L1.96383 4.83404C1.59456 4.46478 1.40993 4.00353 1.40993 3.4503C1.40993 2.89707 1.61135 2.41836 2.01418 2.01418C2.38345 1.64492 2.84537 1.45223 3.39994 1.43611C3.95452 1.42 4.43255 1.59591 4.83404 1.96383L6.34468 3.42411L9.16454 0.604255C9.56738 0.201418 10.0374 0 10.5745 0C11.1116 0 11.5816 0.201418 11.9844 0.604255L13.3943 2.01418L14.905 0.553901C15.2742 0.184634 15.7362 0 16.2907 0C16.8453 0 17.3233 0.201418 17.7248 0.604255C18.0941 0.973522 18.2787 1.4435 18.2787 2.01418C18.2787 2.58487 18.0941 3.05485 17.7248 3.42411L11.9844 9.16454L29.105 26.2851L34.8454 20.5447C35.2147 20.1754 35.6766 19.9827 36.2312 19.9666C36.7857 19.9505 37.2638 20.1432 37.6653 20.5447C38.0345 20.9139 38.2279 21.3759 38.2453 21.9304C38.2628 22.485 38.0862 22.963 37.7156 23.3645L36.2553 24.8752L37.6653 26.2851C38.0681 26.6879 38.2695 27.1579 38.2695 27.695C38.2695 28.2322 38.0681 28.7021 37.6653 29.105L34.8454 31.9248L36.3057 33.4355C36.6749 33.8047 36.8596 34.266 36.8596 34.8192C36.8596 35.3724 36.6582 35.8511 36.2553 36.2553C35.8861 36.6246 35.4248 36.8179 34.8716 36.8354C34.3183 36.8529 33.8396 36.6763 33.4355 36.3057L31.9248 34.8454L29.105 37.6653C28.7021 38.0681 28.2322 38.2695 27.695 38.2695C27.1579 38.2695 26.6879 38.0681 26.2851 37.6653L24.8752 36.2553L23.3645 37.7156C22.9953 38.0849 22.534 38.2695 21.9808 38.2695C21.4276 38.2695 20.9489 38.0681 20.5447 37.6653C20.1754 37.296 19.9908 36.826 19.9908 36.2553C19.9908 35.6846 20.1754 35.2147 20.5447 34.8454L26.2851 29.105L9.16454 11.9844Z" fill="#8A5C5E"/>
</svg>
