<svg width="49" height="49" viewBox="0 0 49 49" fill="none" xmlns="http://www.w3.org/2000/svg">
<path d="M14.0997 12.0855C14.0997 24.3317 24.0095 34.2415 36.2557 34.2415C37.3233 34.2415 38.3706 34.1609 39.3979 34.02C36.155 38.995 30.5556 42.2983 24.1706 42.2983C14.1601 42.2983 6.04297 34.1811 6.04297 24.1706C6.04297 17.7856 9.34623 12.1862 14.3213 8.94336C14.1803 9.97059 14.0997 11.018 14.0997 12.0855Z" stroke="#8A5C5E" stroke-width="2" stroke-linecap="round" stroke-linejoin="round"/>
<path d="M30.6555 12.145L35.7514 8.2375L29.3262 8.05623L27.1911 2.01367L25.0561 8.05623L18.6309 8.2375L23.7267 12.145L21.8938 18.3084L27.1911 14.6628L32.4884 18.3084L30.6555 12.145Z" fill="#8A5C5E"/>
<path d="M39.4974 24.6731L42.8007 22.1553L38.6515 22.0546L37.2617 18.127L35.8719 22.0546L31.7227 22.1553L35.0259 24.6731L33.8375 28.6611L37.2617 26.3045L40.6858 28.6611L39.4974 24.6731Z" fill="#8A5C5E"/>
</svg>
