<svg width="49" height="49" viewBox="0 0 49 49" fill="none" xmlns="http://www.w3.org/2000/svg">
<path d="M11.6822 22.7612L4.02832 44.313L25.5801 36.6792M8.05669 6.04348H8.07683M44.312 16.1144H44.3322M30.2127 4.0293H30.2329M44.312 40.2846H44.3322M44.312 4.0293L39.8002 5.53994C38.516 5.96772 37.4201 6.82829 36.7001 7.97453C35.98 9.12077 35.6804 10.4815 35.8524 11.8242C36.0539 13.5564 34.7044 15.1073 32.9319 15.1073H32.1665C30.4343 15.1073 28.9438 16.3158 28.6215 18.0077L28.1985 20.1428M44.312 26.1853L42.6604 25.5206C40.9282 24.8358 38.9946 25.9235 38.6723 27.7564C38.4507 29.1663 37.2221 30.2137 35.792 30.2137H34.2411M22.156 4.0293L22.8207 5.68093C23.5055 7.41313 22.4178 9.34674 20.5849 9.66901C19.175 9.87043 18.1276 11.1192 18.1276 12.5493V14.1002" stroke="#8A5C5E" stroke-width="2" stroke-linecap="round" stroke-linejoin="round"/>
<path d="M22.1564 26.1842C26.0438 30.0715 27.8565 34.5833 26.1848 36.2551C24.513 37.9269 20.0012 36.1141 16.1138 32.2267C12.2265 28.3393 10.4137 23.8276 12.0855 22.1558C13.7572 20.484 18.269 22.2968 22.1564 26.1842Z" stroke="#8A5C5E" stroke-width="2" stroke-linecap="round" stroke-linejoin="round"/>
</svg>
