<svg width="49" height="49" viewBox="0 0 49 49" fill="none" xmlns="http://www.w3.org/2000/svg">
<path d="M23.3644 26.1848V25.9834L22.7601 25.3792H22.5587L19.336 24.1706C20.1417 23.5664 20.9473 23.1636 21.9544 23.1636C22.9615 23.1636 23.9686 23.5664 24.7743 24.3721C25.58 25.1777 25.9828 25.9834 25.9828 26.9905C25.9828 27.9976 25.7814 28.8033 24.9757 29.6089L23.3644 26.1848ZM19.5374 38.8742C18.9332 36.86 19.336 34.443 20.9473 31.2203L23.3644 37.4643C23.7672 38.6728 23.3644 39.4784 22.1559 40.0827C20.9473 40.687 20.1417 40.2841 19.5374 38.8742ZM8.25798 26.3863C8.66082 25.1777 9.4665 24.7749 10.675 25.1777L17.1204 27.5948C13.8977 29.2061 11.4807 29.6089 9.46649 29.0047C8.25798 28.4004 7.85515 27.5948 8.25798 26.3863ZM24.17 16.3153H22.1559V19.1352H21.3502C19.1346 19.1352 17.3218 19.9409 15.7105 21.5522L14.9048 22.7607L12.0849 21.1494C11.4807 20.948 10.8764 20.948 10.0708 20.948C8.86224 20.948 7.65373 21.3508 6.64664 22.1565C5.63954 22.9621 4.83387 23.7678 4.43103 24.9763C4.0282 26.3863 4.0282 27.5948 4.43103 29.0047C5.03529 30.4146 5.63954 31.4217 6.64664 32.026C5.84096 35.0472 6.44522 37.6657 8.66082 39.8813C10.2722 41.4926 12.0849 42.2983 14.3005 42.2983C15.3076 42.2983 15.9119 42.2983 16.5161 42.0969C17.7247 43.7082 19.336 44.7153 21.3502 44.7153C21.9544 44.7153 22.7601 44.7153 23.3644 44.5139C24.5729 44.1111 25.3786 43.3054 26.1842 42.2983C26.9899 41.0898 27.3927 40.0827 27.3927 38.8742C27.3927 38.0685 27.3927 37.4643 27.1913 36.86L25.9828 34.0402L27.1913 33.2345C28.8027 31.6231 29.6083 29.4075 29.4069 26.9905H32.2268V24.9763H29.0041C28.1984 22.5593 26.5871 20.948 24.17 20.1423V16.3153ZM34.8452 13.6969C34.4424 13.2941 34.241 12.6898 34.241 12.287C34.241 11.6827 34.4424 11.2799 34.8452 10.877C35.2481 10.4742 35.6509 10.2728 36.2551 10.2728C36.8594 10.2728 37.2622 10.4742 37.6651 10.877C38.0679 11.0784 38.2693 11.6827 38.2693 12.287C38.2693 12.8912 38.0679 13.2941 37.6651 13.6969C37.2622 14.0997 36.8594 14.0997 36.2551 14.0997C35.6509 14.0997 35.2481 14.0997 34.8452 13.6969ZM41.6934 8.25859H39.4778L38.8736 6.44583C38.4708 5.0359 37.6651 4.43164 36.2551 4.43164C34.8452 4.43164 33.8381 5.0359 33.6367 6.44583L33.0325 8.25859H30.8169C29.6083 8.25859 28.8027 8.86285 28.1984 10.0714C27.7956 11.2799 28.1984 12.287 29.4069 13.0926L31.2197 14.0997L30.414 16.5167C30.0112 17.3224 30.2126 18.1281 30.6154 18.9338C31.2197 19.7394 31.8239 20.1423 32.831 20.1423C33.6367 20.1423 34.241 19.9409 34.6438 19.538L36.2551 18.3295L37.8665 19.7394C38.2693 19.9409 38.8736 20.1423 39.6793 20.1423C40.6864 20.1423 41.2906 19.7394 41.8949 18.9338C42.2977 18.1281 42.4991 17.3224 42.0963 16.5167L41.2906 14.0997L42.902 13.0926C44.1105 12.287 44.5133 11.2799 44.1105 10.0714C43.7076 8.66143 42.902 8.25859 41.6934 8.25859Z" fill="#8A5C5E"/>
</svg>
