<svg width="49" height="49" viewBox="0 0 49 49" fill="none" xmlns="http://www.w3.org/2000/svg">
<path d="M24.1699 38.2704C24.7041 38.2704 25.2164 38.4826 25.5941 38.8604C25.9719 39.2381 26.1841 39.7504 26.1841 40.2846V42.2988C26.1841 42.833 25.9719 43.3453 25.5941 43.723C25.2164 44.1008 24.7041 44.313 24.1699 44.313C23.6357 44.313 23.1234 44.1008 22.7456 43.723C22.3679 43.3453 22.1557 42.833 22.1557 42.2988V40.2846C22.1557 39.7504 22.3679 39.2381 22.7456 38.8604C23.1234 38.4826 23.6357 38.2704 24.1699 38.2704ZM36.9882 34.1414L38.4122 35.5654C38.7791 35.9453 38.9821 36.4541 38.9775 36.9822C38.9729 37.5103 38.7611 38.0155 38.3876 38.3889C38.0142 38.7624 37.509 38.9742 36.9809 38.9788C36.4528 38.9834 35.944 38.7803 35.5641 38.4134L34.1401 36.9894C33.7732 36.6095 33.5702 36.1007 33.5748 35.5726C33.5794 35.0445 33.7912 34.5393 34.1646 34.1659C34.5381 33.7924 35.0433 33.5806 35.5714 33.576C36.0995 33.5714 36.6083 33.7745 36.9882 34.1414ZM11.3516 34.1414C11.7141 33.7801 12.2005 33.5704 12.712 33.5548C13.2235 33.5391 13.7217 33.7188 14.1056 34.0573C14.4894 34.3957 14.73 34.8676 14.7785 35.377C14.8271 35.8864 14.6799 36.3952 14.3669 36.8001L14.1997 36.9894L12.7756 38.4134C12.4132 38.7747 11.9268 38.9844 11.4153 39C10.9038 39.0156 10.4055 38.836 10.0217 38.4975C9.63786 38.1591 9.39724 37.6872 9.34871 37.1778C9.30018 36.6684 9.44738 36.1595 9.76041 35.7547L9.92759 35.5654L11.3516 34.1414ZM24.1699 12.086C27.3751 12.086 30.449 13.3593 32.7153 15.6257C34.9817 17.8921 36.255 20.966 36.255 24.1711C36.255 27.3763 34.9817 30.4502 32.7153 32.7166C30.449 34.983 27.3751 36.2562 24.1699 36.2562C20.9647 36.2562 17.8908 34.983 15.6244 32.7166C13.358 30.4502 12.0848 27.3763 12.0848 24.1711C12.0848 20.966 13.358 17.8921 15.6244 15.6257C17.8908 13.3593 20.9647 12.086 24.1699 12.086ZM8.05641 22.157C8.56979 22.1575 9.06357 22.3541 9.43687 22.7065C9.81017 23.0589 10.0348 23.5406 10.0649 24.0531C10.095 24.5656 9.92824 25.0702 9.59874 25.4639C9.26924 25.8576 8.80185 26.1106 8.29207 26.1712L8.05641 26.1853H6.04223C5.52885 26.1848 5.03507 25.9882 4.66177 25.6358C4.28847 25.2833 4.06382 24.8017 4.03374 24.2892C4.00365 23.7767 4.17039 23.2721 4.49989 22.8784C4.8294 22.4847 5.29679 22.2317 5.80657 22.1711L6.04223 22.157H8.05641ZM42.2975 22.157C42.8317 22.157 43.3441 22.3692 43.7218 22.7469C44.0995 23.1246 44.3117 23.6369 44.3117 24.1711C44.3117 24.7053 44.0995 25.2177 43.7218 25.5954C43.3441 25.9731 42.8317 26.1853 42.2975 26.1853H40.2834C39.7492 26.1853 39.2368 25.9731 38.8591 25.5954C38.4814 25.2177 38.2692 24.7053 38.2692 24.1711C38.2692 23.6369 38.4814 23.1246 38.8591 22.7469C39.2368 22.3692 39.7492 22.157 40.2834 22.157H42.2975ZM9.92759 9.92884C10.2744 9.58205 10.7359 9.37372 11.2254 9.34294C11.7149 9.31216 12.1988 9.46105 12.5863 9.76167L12.7756 9.92884L14.1997 11.3529C14.5609 11.7153 14.7706 12.2017 14.7863 12.7132C14.8019 13.2247 14.6222 13.723 14.2838 14.1068C13.9453 14.4907 13.4735 14.7313 12.964 14.7798C12.4546 14.8283 11.9458 14.6811 11.5409 14.3681L11.3516 14.2009L9.92759 12.7769C9.54999 12.3992 9.33786 11.887 9.33786 11.3529C9.33786 10.8188 9.54999 10.3066 9.92759 9.92884ZM38.4122 9.92884C38.7898 10.3066 39.0019 10.8188 39.0019 11.3529C39.0019 11.887 38.7898 12.3992 38.4122 12.7769L36.9882 14.2009C36.8024 14.3933 36.5801 14.5467 36.3344 14.6523C36.0886 14.7579 35.8243 14.8134 35.5569 14.8158C35.2894 14.8181 35.0242 14.7671 34.7767 14.6658C34.5291 14.5646 34.3043 14.415 34.1151 14.2259C33.926 14.0368 33.7765 13.8119 33.6752 13.5644C33.5739 13.3168 33.5229 13.0516 33.5253 12.7841C33.5276 12.5167 33.5832 12.2524 33.6887 12.0067C33.7943 11.7609 33.9477 11.5387 34.1401 11.3529L35.5641 9.92884C35.9418 9.55124 36.4541 9.33912 36.9882 9.33912C37.5222 9.33912 38.0345 9.55124 38.4122 9.92884ZM24.1699 4.0293C24.7041 4.0293 25.2164 4.2415 25.5941 4.61924C25.9719 4.99697 26.1841 5.50929 26.1841 6.04348V8.05767C26.1841 8.59186 25.9719 9.10418 25.5941 9.48191C25.2164 9.85964 24.7041 10.0719 24.1699 10.0719C23.6357 10.0719 23.1234 9.85964 22.7456 9.48191C22.3679 9.10418 22.1557 8.59186 22.1557 8.05767V6.04348C22.1557 5.50929 22.3679 4.99697 22.7456 4.61924C23.1234 4.2415 23.6357 4.0293 24.1699 4.0293Z" fill="#8A5C5E"/>
</svg>
