<svg width="49" height="49" viewBox="0 0 49 49" fill="none" xmlns="http://www.w3.org/2000/svg">
<path d="M27.6791 32.6344C27.2219 31.4138 28.7285 30.4752 29.6208 31.3091L29.7437 31.442L35.4841 38.4111C35.7252 38.7066 35.9012 39.0497 36.0007 39.4178C36.1003 39.786 36.1211 40.1709 36.0618 40.5477C36.0025 40.9244 35.8645 41.2844 35.6567 41.6042C35.4489 41.924 35.176 42.1964 34.8559 42.4036C34.5357 42.6108 34.1755 42.7482 33.7986 42.8068C33.4218 42.8654 33.0368 42.8439 32.6688 42.7437C32.3009 42.6435 31.9582 42.4669 31.6631 42.2253C31.368 41.9837 31.1271 41.6827 30.9562 41.3417L30.8475 41.088L27.6791 32.6344ZM28.9722 25.613L29.1435 25.6653L37.599 28.8337C37.9557 28.9681 38.2801 29.1763 38.551 29.4445C38.8219 29.7127 39.0332 30.0351 39.1712 30.3905C39.3092 30.7458 39.3707 31.1263 39.3517 31.5071C39.3328 31.8878 39.2339 32.2603 39.0613 32.6003C38.8888 32.9402 38.6465 33.24 38.3504 33.48C38.0542 33.7201 37.7108 33.895 37.3425 33.9935C36.9742 34.0919 36.5893 34.1116 36.2129 34.0513C35.8364 33.991 35.4769 33.8521 35.1578 33.6435L34.9221 33.4683L27.9531 27.7299C26.946 26.9041 27.7819 25.337 28.9722 25.615V25.613ZM45.3194 24.1708C45.3194 25.76 43.9699 26.9887 42.4189 26.8779L42.1591 26.8477L33.2544 25.3632C31.9814 25.1517 31.9109 23.4135 33.0409 23.0308L33.2544 22.9784L42.1591 21.494C42.5481 21.429 42.9466 21.4496 43.3268 21.5543C43.707 21.659 44.0598 21.8454 44.3606 22.1004C44.6614 22.3554 44.9031 22.6729 45.0686 23.0308C45.2342 23.3887 45.3198 23.7785 45.3194 24.1728V24.1708ZM38.9948 15.6105C39.7864 16.9802 39.2365 18.7144 37.8508 19.3972L37.597 19.508L29.1414 22.6763C27.9229 23.1335 26.9863 21.6269 27.8181 20.7346L27.949 20.6118L34.9201 14.8713C35.2244 14.6208 35.5797 14.4396 35.9611 14.3403C36.3425 14.241 36.741 14.226 37.1288 14.2964C37.5167 14.3668 37.8845 14.5208 38.2067 14.7477C38.529 14.9747 38.7979 15.2691 38.9948 15.6105ZM34.7449 5.85584C36.1105 6.6454 36.5033 8.40982 35.6573 9.69487L35.4821 9.93053L29.7437 16.8996C28.9179 17.9067 27.3508 17.0708 27.6288 15.8804L27.6791 15.7092L30.8475 7.25167C30.9857 6.88264 31.2026 6.54816 31.4832 6.27148C31.7638 5.9948 32.1013 5.78256 32.4722 5.64952C32.8432 5.51649 33.2386 5.46585 33.6311 5.50113C34.0236 5.53641 34.4036 5.65677 34.7449 5.85382V5.85584ZM18.5972 31.442C19.423 30.4349 20.99 31.2708 20.7121 32.4612L20.6617 32.6324L17.4934 41.09C17.3589 41.4467 17.1508 41.7711 16.8826 42.042C16.6143 42.3129 16.292 42.5242 15.9366 42.6621C15.5812 42.8001 15.2008 42.8616 14.82 42.8427C14.4392 42.8238 14.0667 42.7248 13.7268 42.5523C13.3868 42.3798 13.0871 42.1375 12.847 41.8414C12.607 41.5452 12.432 41.2018 12.3336 40.8335C12.2352 40.4652 12.2154 40.0803 12.2757 39.7038C12.336 39.3274 12.475 38.9679 12.6835 38.6488L12.8568 38.4131L18.5972 31.442ZM20.5207 27.607L20.3878 27.7299L13.4187 33.4703C13.1232 33.7114 12.7802 33.8874 12.412 33.9869C12.0439 34.0865 11.6589 34.1073 11.2821 34.048C10.9054 33.9887 10.5454 33.8507 10.2256 33.6429C9.90582 33.4351 9.63344 33.1622 9.42622 32.8421C9.219 32.5219 9.0816 32.1617 9.02299 31.7848C8.96438 31.408 8.98588 31.023 9.08608 30.655C9.18627 30.2871 9.36292 29.9444 9.6045 29.6493C9.84607 29.3542 10.1471 29.1133 10.4881 28.9424L10.7419 28.8337L19.1974 25.6653C20.416 25.2081 21.3526 26.7147 20.5207 27.607ZM5.92192 21.4638L6.18175 21.494L15.0865 22.9784C16.3594 23.1919 16.4299 24.9281 15.3 25.3108L15.0865 25.3632L6.18175 26.8477C5.80427 26.91 5.41787 26.8919 5.04791 26.7943C4.67795 26.6968 4.3328 26.5221 4.03512 26.2818C3.73744 26.0415 3.49396 25.7409 3.32066 25.3998C3.14736 25.0587 3.04816 24.6848 3.02957 24.3026C3.01098 23.9205 3.07343 23.5387 3.21282 23.1824C3.3522 22.8261 3.56537 22.5033 3.83832 22.2352C4.11127 21.9672 4.43785 21.7598 4.79659 21.6269C5.15534 21.4939 5.53816 21.4383 5.91991 21.4638H5.92192ZM13.1831 14.6981L13.4187 14.8733L20.3878 20.6118C21.3949 21.4376 20.559 23.0046 19.3686 22.7266L19.1974 22.6763L10.7419 19.508C10.3851 19.3735 10.0608 19.1654 9.78987 18.8971C9.51898 18.6289 9.30766 18.3066 9.16969 17.9512C9.03171 17.5958 8.97019 17.2153 8.98911 16.8346C9.00804 16.4538 9.107 16.0813 9.27954 15.7414C9.45207 15.4014 9.69432 15.1016 9.99048 14.8616C10.2866 14.6215 10.6301 14.4466 10.9984 14.3482C11.3667 14.2497 11.7516 14.23 12.128 14.2903C12.5044 14.3506 12.8639 14.4896 13.1831 14.6981ZM17.3846 6.99989L17.4934 7.25368L20.6617 15.7092C21.1189 16.9298 19.6123 17.8644 18.72 17.0325L18.5972 16.9016L12.8568 9.93053C12.6157 9.635 12.4397 9.29197 12.3401 8.92383C12.2406 8.55568 12.2198 8.17068 12.2791 7.79395C12.3384 7.41722 12.4764 7.05722 12.6842 6.73743C12.892 6.41764 13.1648 6.14525 13.485 5.93803C13.8052 5.73081 14.1654 5.59342 14.5422 5.53481C14.9191 5.4762 15.304 5.4977 15.672 5.59789C16.04 5.69809 16.3827 5.87474 16.6778 6.11631C16.9729 6.35789 17.2137 6.65896 17.3846 6.99989ZM24.1704 7.05025C22.4946 7.05025 21.2176 8.55484 21.4936 10.2105L22.978 19.1152C23.2036 20.4627 25.1372 20.4627 25.3628 19.1152L26.8473 10.2105C26.9123 9.8217 26.8917 9.4234 26.7871 9.04334C26.6825 8.66327 26.4963 8.31057 26.2415 8.00978C25.9867 7.70898 25.6695 7.46732 25.3118 7.30161C24.9541 7.1359 24.5646 7.05012 24.1704 7.05025ZM25.3628 29.2264C25.1372 27.8789 23.2036 27.8789 22.978 29.2264L21.4936 38.1311C21.4294 38.5196 21.4506 38.9173 21.5556 39.2967C21.6606 39.6762 21.8469 40.0282 22.1016 40.3284C22.3563 40.6286 22.6733 40.8698 23.0305 41.0352C23.3878 41.2006 23.7767 41.2863 24.1704 41.2863C24.5641 41.2863 24.9531 41.2006 25.3104 41.0352C25.6676 40.8698 25.9846 40.6286 26.2393 40.3284C26.494 40.0282 26.6803 39.6762 26.7853 39.2967C26.8903 38.9173 26.9114 38.5196 26.8473 38.1311L25.3628 29.2264Z" fill="#8A5C5E"/>
</svg>
