<svg width="49" height="49" viewBox="0 0 49 49" fill="none" xmlns="http://www.w3.org/2000/svg">
<path d="M36.5518 13.5611C32.9976 13.0207 29.3645 13.3865 25.9894 14.6246L25.2925 14.8905C20.7251 16.7415 15.7428 17.326 10.871 16.5824C8.78024 16.2601 6.6009 15.7405 4.69145 14.7878C3.99567 14.443 3.45937 13.8435 3.19384 13.1138C2.92831 12.384 2.95395 11.5801 3.26542 10.8688C3.5769 10.1575 4.15031 9.59338 4.86664 9.2936C5.58297 8.99382 6.38723 8.98137 7.1125 9.25883L7.37837 9.37565C8.75205 10.0202 10.2989 10.3807 11.7894 10.6103C14.4965 11.0253 18.2006 11.0535 22.3518 9.54484L23.0487 9.27897C27.6162 7.42797 32.5984 6.84346 37.4703 7.58705C39.561 7.90932 41.7383 8.431 43.6458 9.37968C44.3584 9.74318 44.8996 10.3721 45.1528 11.1309C45.406 11.8898 45.3509 12.7177 44.9993 13.4362C44.2561 14.9227 42.7394 15.2631 40.9609 14.7938L36.5518 13.5611ZM36.5518 25.6462C32.9976 25.1058 29.3645 25.4716 25.9894 26.7097L25.2925 26.9756C20.7251 28.8266 15.7428 29.4111 10.871 28.6675C8.78024 28.3452 6.6009 27.8256 4.69145 26.8729C3.99567 26.5281 3.45937 25.9286 3.19384 25.1989C2.92831 24.4692 2.95395 23.6652 3.26542 22.9539C3.5769 22.2426 4.15031 21.6785 4.86664 21.3787C5.58297 21.0789 6.38723 21.0665 7.1125 21.3439L7.37837 21.4608C8.75205 22.1053 10.2989 22.4658 11.7894 22.6954C14.4965 23.1104 18.2006 23.1386 22.3518 21.6299L23.0487 21.3641C27.6162 19.5131 32.5984 18.9286 37.4703 19.6722C39.561 19.9944 41.7383 20.5161 43.6458 21.4648C44.3584 21.8283 44.8996 22.4572 45.1528 23.216C45.406 23.9749 45.3509 24.8028 44.9993 25.5214C44.2561 27.0098 42.7394 27.3482 40.9609 26.8789L36.5518 25.6462ZM24.5594 39.3427L25.2925 39.0607C28.8572 37.611 32.7475 37.1517 36.5518 37.7313L40.9629 38.964C42.7394 39.4333 44.2561 39.0949 45.0013 37.6065C45.3521 36.8879 45.4066 36.0602 45.153 35.3019C44.8995 34.5435 44.3582 33.9151 43.6458 33.5519C41.7383 32.6012 39.561 32.0815 37.4703 31.7593C32.8612 31.0565 28.149 31.5418 23.7799 33.1692L23.0487 33.4512C18.6135 35.2237 14.6455 35.2196 11.7894 34.7806C10.5124 34.5832 9.19114 34.2911 7.97658 33.8057L7.37837 33.5438C6.66041 33.1875 5.83032 33.131 5.0707 33.3868C4.31108 33.6425 3.68416 34.1895 3.32785 34.9074C2.97154 35.6254 2.91503 36.4555 3.17076 37.2151C3.42648 37.9747 3.97349 38.6017 4.69145 38.958C6.59888 39.9107 8.78024 40.4303 10.871 40.7506C14.3998 41.2944 19.2157 41.3146 24.5594 39.3407V39.3427Z" fill="#8A5C5E"/>
</svg>
