<svg width="45" height="45" viewBox="0 0 45 45" fill="none" xmlns="http://www.w3.org/2000/svg">
<path d="M22.1558 2.58984C27.0242 2.58984 31.4761 4.37414 34.9029 7.31646L37.3607 4.86453C37.6393 4.59547 38.0124 4.44659 38.3997 4.44995C38.787 4.45332 39.1574 4.60866 39.4313 4.88252C39.7052 5.15638 39.8605 5.52685 39.8639 5.91413C39.8672 6.30142 39.7183 6.67453 39.4493 6.9531L36.9914 9.40504C40.1851 13.1491 41.8506 17.9593 41.6559 22.8766C41.4611 27.7939 39.4205 32.4572 35.9407 35.937C32.4609 39.4168 27.7975 41.4575 22.8802 41.6522C17.9629 41.847 13.1528 40.1815 9.40866 36.9878L6.95377 39.4486C6.6752 39.7177 6.30208 39.8666 5.9148 39.8632C5.52752 39.8598 5.15705 39.7045 4.88319 39.4306C4.60933 39.1568 4.45399 38.7863 4.45062 38.399C4.44726 38.0117 4.59614 37.6386 4.8652 37.36L7.31713 34.9022C4.87864 32.0628 3.30574 28.5835 2.78502 24.8772C2.2643 21.1708 2.8176 17.3928 4.3793 13.9914C5.941 10.59 8.44555 7.70789 11.5959 5.687C14.7462 3.6661 18.413 2.59122 22.1558 2.58984ZM11.3909 35.0056C14.6029 37.6907 18.7036 39.0764 22.886 38.8899C27.0684 38.7034 31.0295 36.9583 33.9898 33.998C36.9501 31.0377 38.6953 27.0766 38.8817 22.8942C39.0682 18.7118 37.6825 14.6111 34.9974 11.3991L11.3909 35.0056ZM22.1558 5.39332C17.7103 5.39332 13.4468 7.15929 10.3034 10.3027C7.15996 13.4462 5.39399 17.7096 5.39399 22.1551C5.38947 26.0907 6.77582 29.9014 9.30822 32.9141L32.9118 9.31051C29.8991 6.77811 26.0885 5.39175 22.1528 5.39627" fill="#916567"/>
</svg>
